<svg xmlns="http://www.w3.org/2000/svg" xmlns:xlink="http://www.w3.org/1999/xlink" width="500" zoomAndPan="magnify" viewBox="0 0 375 374.999991" height="500" preserveAspectRatio="xMidYMid meet" version="1.0"><defs><g/></defs><g fill="#737373" fill-opacity="0.302"><g transform="translate(64.683481, 326.389408)"><g><path d="M 148.375 -128.375 C 148.375 -121.707031 146.0625 -116.007812 141.4375 -111.28125 C 136.820312 -106.550781 131.070312 -104.1875 124.1875 -104.1875 C 117.519531 -104.1875 111.820312 -106.550781 107.09375 -111.28125 C 102.363281 -116.007812 100 -121.707031 100 -128.375 C 100 -135.257812 102.363281 -141.066406 107.09375 -145.796875 C 111.820312 -150.523438 117.519531 -152.890625 124.1875 -152.890625 C 131.070312 -152.890625 136.820312 -150.523438 141.4375 -145.796875 C 146.0625 -141.066406 148.375 -135.257812 148.375 -128.375 Z M 248.375 -129.34375 C 248.375 -113.21875 245.789062 -97.46875 240.625 -82.09375 C 235.46875 -66.71875 227.726562 -52.847656 217.40625 -40.484375 C 207.082031 -28.117188 194.175781 -18.28125 178.6875 -10.96875 C 163.207031 -3.65625 145.148438 0 124.515625 0 C 103.648438 0 85.421875 -3.65625 69.828125 -10.96875 C 54.242188 -18.28125 41.289062 -28.117188 30.96875 -40.484375 C 20.644531 -52.847656 12.898438 -66.71875 7.734375 -82.09375 C 2.578125 -97.46875 0 -113.21875 0 -129.34375 C 0 -145.476562 2.578125 -161.175781 7.734375 -176.4375 C 12.898438 -191.707031 20.644531 -205.46875 30.96875 -217.71875 C 41.289062 -229.976562 54.242188 -239.765625 69.828125 -247.078125 C 85.421875 -254.390625 103.648438 -258.046875 124.515625 -258.046875 C 145.148438 -258.046875 163.207031 -254.390625 178.6875 -247.078125 C 194.175781 -239.765625 207.082031 -229.976562 217.40625 -217.71875 C 227.726562 -205.46875 235.46875 -191.707031 240.625 -176.4375 C 245.789062 -161.175781 248.375 -145.476562 248.375 -129.34375 Z M 199.984375 -128.375 C 199.984375 -138.914062 198.367188 -149.1875 195.140625 -159.1875 C 191.921875 -169.1875 187.191406 -178.21875 180.953125 -186.28125 C 174.722656 -194.34375 166.875 -200.738281 157.40625 -205.46875 C 147.945312 -210.195312 136.984375 -212.5625 124.515625 -212.5625 C 111.828125 -212.5625 100.75 -210.195312 91.28125 -205.46875 C 81.820312 -200.738281 73.921875 -194.34375 67.578125 -186.28125 C 61.234375 -178.21875 56.5 -169.1875 53.375 -159.1875 C 50.257812 -149.1875 48.703125 -138.914062 48.703125 -128.375 C 48.703125 -118.050781 50.257812 -107.941406 53.375 -98.046875 C 56.5 -88.160156 61.234375 -79.238281 67.578125 -71.28125 C 73.921875 -63.320312 81.820312 -56.976562 91.28125 -52.25 C 100.75 -47.519531 111.828125 -45.15625 124.515625 -45.15625 C 136.984375 -45.15625 147.945312 -47.519531 157.40625 -52.25 C 166.875 -56.976562 174.722656 -63.320312 180.953125 -71.28125 C 187.191406 -79.238281 191.921875 -88.160156 195.140625 -98.046875 C 198.367188 -107.941406 199.984375 -118.050781 199.984375 -128.375 Z M 199.984375 -128.375 "/></g></g></g><g fill="#737373" fill-opacity="0.502"><g transform="translate(64.683481, 315.099295)"><g><path d="M 148.375 -128.375 C 148.375 -121.707031 146.0625 -116.007812 141.4375 -111.28125 C 136.820312 -106.550781 131.070312 -104.1875 124.1875 -104.1875 C 117.519531 -104.1875 111.820312 -106.550781 107.09375 -111.28125 C 102.363281 -116.007812 100 -121.707031 100 -128.375 C 100 -135.257812 102.363281 -141.066406 107.09375 -145.796875 C 111.820312 -150.523438 117.519531 -152.890625 124.1875 -152.890625 C 131.070312 -152.890625 136.820312 -150.523438 141.4375 -145.796875 C 146.0625 -141.066406 148.375 -135.257812 148.375 -128.375 Z M 248.375 -129.34375 C 248.375 -113.21875 245.789062 -97.46875 240.625 -82.09375 C 235.46875 -66.71875 227.726562 -52.847656 217.40625 -40.484375 C 207.082031 -28.117188 194.175781 -18.28125 178.6875 -10.96875 C 163.207031 -3.65625 145.148438 0 124.515625 0 C 103.648438 0 85.421875 -3.65625 69.828125 -10.96875 C 54.242188 -18.28125 41.289062 -28.117188 30.96875 -40.484375 C 20.644531 -52.847656 12.898438 -66.71875 7.734375 -82.09375 C 2.578125 -97.46875 0 -113.21875 0 -129.34375 C 0 -145.476562 2.578125 -161.175781 7.734375 -176.4375 C 12.898438 -191.707031 20.644531 -205.46875 30.96875 -217.71875 C 41.289062 -229.976562 54.242188 -239.765625 69.828125 -247.078125 C 85.421875 -254.390625 103.648438 -258.046875 124.515625 -258.046875 C 145.148438 -258.046875 163.207031 -254.390625 178.6875 -247.078125 C 194.175781 -239.765625 207.082031 -229.976562 217.40625 -217.71875 C 227.726562 -205.46875 235.46875 -191.707031 240.625 -176.4375 C 245.789062 -161.175781 248.375 -145.476562 248.375 -129.34375 Z M 199.984375 -128.375 C 199.984375 -138.914062 198.367188 -149.1875 195.140625 -159.1875 C 191.921875 -169.1875 187.191406 -178.21875 180.953125 -186.28125 C 174.722656 -194.34375 166.875 -200.738281 157.40625 -205.46875 C 147.945312 -210.195312 136.984375 -212.5625 124.515625 -212.5625 C 111.828125 -212.5625 100.75 -210.195312 91.28125 -205.46875 C 81.820312 -200.738281 73.921875 -194.34375 67.578125 -186.28125 C 61.234375 -178.21875 56.5 -169.1875 53.375 -159.1875 C 50.257812 -149.1875 48.703125 -138.914062 48.703125 -128.375 C 48.703125 -118.050781 50.257812 -107.941406 53.375 -98.046875 C 56.5 -88.160156 61.234375 -79.238281 67.578125 -71.28125 C 73.921875 -63.320312 81.820312 -56.976562 91.28125 -52.25 C 100.75 -47.519531 111.828125 -45.15625 124.515625 -45.15625 C 136.984375 -45.15625 147.945312 -47.519531 157.40625 -52.25 C 166.875 -56.976562 174.722656 -63.320312 180.953125 -71.28125 C 187.191406 -79.238281 191.921875 -88.160156 195.140625 -98.046875 C 198.367188 -107.941406 199.984375 -118.050781 199.984375 -128.375 Z M 199.984375 -128.375 "/></g></g></g><g fill="#ffffff" fill-opacity="1"><g transform="translate(64.683481, 303.80918)"><g><path d="M 148.375 -128.375 C 148.375 -121.707031 146.0625 -116.007812 141.4375 -111.28125 C 136.820312 -106.550781 131.070312 -104.1875 124.1875 -104.1875 C 117.519531 -104.1875 111.820312 -106.550781 107.09375 -111.28125 C 102.363281 -116.007812 100 -121.707031 100 -128.375 C 100 -135.257812 102.363281 -141.066406 107.09375 -145.796875 C 111.820312 -150.523438 117.519531 -152.890625 124.1875 -152.890625 C 131.070312 -152.890625 136.820312 -150.523438 141.4375 -145.796875 C 146.0625 -141.066406 148.375 -135.257812 148.375 -128.375 Z M 248.375 -129.34375 C 248.375 -113.21875 245.789062 -97.46875 240.625 -82.09375 C 235.46875 -66.71875 227.726562 -52.847656 217.40625 -40.484375 C 207.082031 -28.117188 194.175781 -18.28125 178.6875 -10.96875 C 163.207031 -3.65625 145.148438 0 124.515625 0 C 103.648438 0 85.421875 -3.65625 69.828125 -10.96875 C 54.242188 -18.28125 41.289062 -28.117188 30.96875 -40.484375 C 20.644531 -52.847656 12.898438 -66.71875 7.734375 -82.09375 C 2.578125 -97.46875 0 -113.21875 0 -129.34375 C 0 -145.476562 2.578125 -161.175781 7.734375 -176.4375 C 12.898438 -191.707031 20.644531 -205.46875 30.96875 -217.71875 C 41.289062 -229.976562 54.242188 -239.765625 69.828125 -247.078125 C 85.421875 -254.390625 103.648438 -258.046875 124.515625 -258.046875 C 145.148438 -258.046875 163.207031 -254.390625 178.6875 -247.078125 C 194.175781 -239.765625 207.082031 -229.976562 217.40625 -217.71875 C 227.726562 -205.46875 235.46875 -191.707031 240.625 -176.4375 C 245.789062 -161.175781 248.375 -145.476562 248.375 -129.34375 Z M 199.984375 -128.375 C 199.984375 -138.914062 198.367188 -149.1875 195.140625 -159.1875 C 191.921875 -169.1875 187.191406 -178.21875 180.953125 -186.28125 C 174.722656 -194.34375 166.875 -200.738281 157.40625 -205.46875 C 147.945312 -210.195312 136.984375 -212.5625 124.515625 -212.5625 C 111.828125 -212.5625 100.75 -210.195312 91.28125 -205.46875 C 81.820312 -200.738281 73.921875 -194.34375 67.578125 -186.28125 C 61.234375 -178.21875 56.5 -169.1875 53.375 -159.1875 C 50.257812 -149.1875 48.703125 -138.914062 48.703125 -128.375 C 48.703125 -118.050781 50.257812 -107.941406 53.375 -98.046875 C 56.5 -88.160156 61.234375 -79.238281 67.578125 -71.28125 C 73.921875 -63.320312 81.820312 -56.976562 91.28125 -52.25 C 100.75 -47.519531 111.828125 -45.15625 124.515625 -45.15625 C 136.984375 -45.15625 147.945312 -47.519531 157.40625 -52.25 C 166.875 -56.976562 174.722656 -63.320312 180.953125 -71.28125 C 187.191406 -79.238281 191.921875 -88.160156 195.140625 -98.046875 C 198.367188 -107.941406 199.984375 -118.050781 199.984375 -128.375 Z M 199.984375 -128.375 "/></g></g></g></svg>